<svg xmlns="http://www.w3.org/2000/svg" width="1600" height="900" viewBox="0 0 1600 900">
  <defs><linearGradient id="g" x1="0" y1="0" x2="1" y2="1"><stop stop-color="#07101f"/><stop offset="1" stop-color="#0c1830"/></linearGradient><linearGradient id="a" x1="0" y1="0" x2="1" y2="0"><stop stop-color="#6ee675"/><stop offset="1" stop-color="#2ed3b7"/></linearGradient></defs>
  <rect width="1600" height="900" rx="28" fill="url(#g)"/>
  <rect x="52" y="48" width="1496" height="804" rx="22" fill="#091525" stroke="#20314d" stroke-width="2"/>
  <rect x="84" y="84" width="252" height="732" rx="18" fill="#07101d"/><rect x="376" y="84" width="1138" height="88" rx="18" fill="#0d1b2e"/>
  <rect x="412" y="214" width="330" height="220" rx="18" fill="#0c192b" stroke="#1b2c45"/><rect x="778" y="214" width="330" height="220" rx="18" fill="#0c192b" stroke="#1b2c45"/><rect x="1144" y="214" width="330" height="220" rx="18" fill="#0c192b" stroke="#1b2c45"/>
  <rect x="412" y="474" width="1062" height="302" rx="18" fill="#0c192b" stroke="#1b2c45"/>
  <rect x="112" y="118" width="150" height="20" rx="10" fill="url(#a)"/><rect x="112" y="188" width="176" height="14" rx="7" fill="#233652"/><rect x="112" y="232" width="140" height="14" rx="7" fill="#233652"/><rect x="112" y="276" width="164" height="14" rx="7" fill="#233652"/>
  <text x="420" y="135" fill="#f6f8fb" font-family="Arial, sans-serif" font-size="30" font-weight="700">Dashboard / KPI</text><text x="420" y="160" fill="#7f91aa" font-family="Arial, sans-serif" font-size="16">Orders • Revenue • Customers</text>
  <text x="800" y="590" text-anchor="middle" fill="#f6f8fb" font-family="Arial, sans-serif" font-size="48" font-weight="700">MarketSoft screen placeholder</text><text x="800" y="642" text-anchor="middle" fill="#6ee675" font-family="Arial, sans-serif" font-size="22">Replace this file in /public/screenshots</text>
</svg>
